#!OML:ASF F:\VICON\USERDATA\INSTALL\rory3\rory3.ASF
:FULLY-SPECIFIED
:DEGREES
1891
root 1.52775 15.4566 -0.978164 3.20492 -13.9842 13.2544
lowerback 24.4585 -1.53591 12.0872
upperback 3.66573 2.50296 13.6425
thorax -9.77247 0.984017 7.94852
lowerneck -12.5144 -7.58 -6.40658
upperneck 20.8594 -11.0388 8.06743
head 9.45351 -4.79069 2.47704
rclavicle -1.59028e-014 3.49861e-014
rhumerus 21.5041 -40.2107 -30.295
rradius 56.5376
rwrist 23.902
rhand 15.5064 4.30748
rfingers 7.12502
rthumb 40.3281 -20.8187
lclavicle -1.59028e-014 3.49861e-014
lhumerus -82.8153 -47.3268 117.305
lradius 99.8227
lwrist 25.69
lhand 13.1606 16.8391
lfingers 7.12502
lthumb 38.1175 42.6063
rfemur -31.6401 17.256 -6.34863
rtibia 44.5821
rfoot -17.0657 -8.88172
rtoes -24.4876
lfemur -18.8065 4.07244 -35.6787
ltibia 30.3443
lfoot -13.3023 5.10297
ltoes -5.64357
1892
root 1.52269 15.4498 -0.980174 3.24335 -13.9863 13.2594
lowerback 24.5141 -1.57495 12.1008
upperback 3.63253 2.47885 13.677
thorax -9.84151 0.972022 7.99781
lowerneck -12.0602 -7.5461 -6.47501
upperneck 20.6476 -10.9948 8.13761
head 9.29968 -4.78705 2.53406
rclavicle -1.59028e-014 -9.85972e-014
rhumerus 21.3687 -39.9936 -30.184
rradius 56.6039
rwrist 23.8589
rhand 15.5563 4.22183
rfingers 7.12502
rthumb 40.3751 -20.89
lclavicle -1.59028e-014 -9.85972e-014
lhumerus -82.9992 -47.3085 117.45
lradius 99.8312
lwrist 25.7017
lhand 13.1834 16.8805
lfingers 7.12502
lthumb 38.139 42.6417
rfemur -31.7816 17.3039 -6.3536
rtibia 44.7559
rfoot -17.0903 -8.99888
rtoes -24.6307
lfemur -18.9607 4.0892 -35.675
ltibia 30.5419
lfoot -13.3437 5.1023
ltoes -5.9146
1893
root 1.51657 15.4442 -0.982074 3.29978 -13.9541 13.2894
lowerback 24.5365 -1.60028 12.0673
upperback 3.62728 2.44848 13.7178
thorax -9.86206 0.960212 8.07931
lowerneck -11.9082 -7.54265 -6.5005
upperneck 20.6101 -10.9845 8.12048
head 9.25783 -4.79126 2.53909
rclavicle 6.36111e-014 -6.67916e-014
rhumerus 21.2897 -39.8545 -30.0425
rradius 56.6497
rwrist 23.7502
rhand 15.6617 4.27369
rfingers 7.12502
rthumb 40.4741 -20.8076
lclavicle 6.36111e-014 -6.67916e-014
lhumerus -83.0866 -47.3348 117.59
lradius 99.8231
lwrist 25.6748
lhand 13.2044 16.8874
lfingers 7.12502
lthumb 38.1588 42.6433
rfemur -31.9213 17.2901 -6.38136
rtibia 44.9169
rfoot -17.1117 -9.09662
rtoes -24.7326
lfemur -19.1218 4.12404 -35.6914
ltibia 30.712
lfoot -13.3935 5.0658
ltoes -6.18031
1894
root 1.51124 15.4416 -0.982672 3.36797 -13.8859 13.316
lowerback 24.5196 -1.60716 12.0721
upperback 3.65255 2.43564 13.7455
thorax -9.82409 0.955645 8.11199
lowerneck -11.9442 -7.58731 -6.56515
upperneck 20.6968 -11.0472 8.15228
head 9.30571 -4.81821 2.55067
rclavicle -5.725e-014 -7.95139e-014
rhumerus 21.2285 -39.8397 -29.9342
rradius 56.6639
rwrist 23.678
rhand 15.5906 4.30387
rfingers 7.12502
rthumb 40.4073 -20.798
lclavicle -5.725e-014 -7.95139e-014
lhumerus -83.146 -47.5154 117.734
lradius 99.8405
lwrist 25.7142
lhand 13.105 16.8959
lfingers 7.12502
lthumb 38.065 42.6774
rfemur -32.0204 17.2287 -6.40287
rtibia 45.0457
rfoot -17.1274 -9.161
rtoes -25.0364
lfemur -19.2746 4.16282 -35.7089
ltibia 30.8593
lfoot -13.4004 4.98598
ltoes -6.42947
1895
root 1.50527 15.4378 -0.982851 3.41532 -13.826 13.3952
lowerback 24.4995 -1.6062 12.0285
upperback 3.67521 2.41749 13.7446
thorax -9.78754 0.949852 8.13854
lowerneck -11.8612 -7.59209 -6.63139
upperneck 20.6769 -11.0584 8.22418
head 9.29276 -4.82374 2.58734
rclavicle -4.45278e-014 -2.8625e-014
rhumerus 21.1207 -39.7719 -29.8056
rradius 56.6822
rwrist 23.5398
rhand 15.4113 4.05029
rfingers 7.12502
rthumb 40.2386 -21.1033
lclavicle -4.45278e-014 -2.8625e-014
lhumerus -83.1223 -47.6749 117.785
lradius 99.8414
lwrist 25.7755
lhand 13.1086 16.8395
lfingers 7.12502
lthumb 38.0684 42.6201
rfemur -32.1042 17.1341 -6.47248
rtibia 45.1676
rfoot -17.1348 -9.191
rtoes -25.2514
lfemur -19.3896 4.17715 -35.7811
ltibia 30.9681
lfoot -13.4061 4.89842
ltoes -6.76497
1896
root 1.49795 15.436 -0.984288 3.45723 -13.8126 13.3536
lowerback 24.5364 -1.6376 12.0669
upperback 3.69721 2.389 13.7327
thorax -9.77734 0.934726 8.11232
lowerneck -11.9922 -7.59715 -6.52374
upperneck 20.8313 -11.0808 8.15745
head 9.36211 -4.82488 2.53966
rclavicle -1.27222e-014 -3.81667e-014
rhumerus 21.0268 -39.7086 -29.7477
rradius 56.6945
rwrist 23.373
rhand 15.3098 3.94848
rfingers 7.12502
rthumb 40.1432 -21.2342
lclavicle -1.27222e-014 -3.81667e-014
lhumerus -83.0246 -47.7008 117.664
lradius 99.8011
lwrist 25.716
lhand 13.378 16.8216
lfingers 7.12502
lthumb 38.3227 42.5323
rfemur -32.1823 17.1092 -6.4075
rtibia 45.2601
rfoot -17.1303 -9.14338
rtoes -25.16
lfemur -19.4695 4.25908 -35.7212
ltibia 31.0474
lfoot -13.4323 4.81608
ltoes -7.11907
1897
root 1.48968 15.434 -0.984464 3.45665 -13.8071 13.3836
lowerback 24.5695 -1.65078 12.0422
upperback 3.71224 2.36304 13.667
thorax -9.77311 0.921976 8.05464
lowerneck -12.2991 -7.64897 -6.27661
upperneck 21.0897 -11.1802 8.00417
head 9.49328 -4.85138 2.42303
rclavicle 2.22639e-014 -9.54166e-014
rhumerus 20.8341 -39.7469 -29.7439
rradius 56.7737
rwrist 23.3028
rhand 15.3691 4.02782
rfingers 7.12502
rthumb 40.199 -21.1379
lclavicle 2.22639e-014 -9.54166e-014
lhumerus -83.0853 -47.7853 117.586
lradius 99.8053
lwrist 25.7004
lhand 13.5901 16.8101
lfingers 7.12502
lthumb 38.5229 42.4651
rfemur -32.2237 17.104 -6.41164
rtibia 45.3412
rfoot -17.1921 -9.13498
rtoes -24.9228
lfemur -19.4971 4.3269 -35.7238
ltibia 31.0973
lfoot -13.4522 4.75003
ltoes -6.97141
1898
root 1.48281 15.4335 -0.983101 3.47705 -13.8253 13.3813
lowerback 24.5743 -1.65469 12.0172
upperback 3.72828 2.34641 13.6416
thorax -9.7554 0.914682 8.04211
lowerneck -12.3739 -7.6649 -6.19266
upperneck 21.1272 -11.2069 7.94718
head 9.51387 -4.85982 2.38365
rclavicle 1.27222e-014 9.54166e-015
rhumerus 20.7325 -39.7167 -29.7552
rradius 56.8299
rwrist 23.2577
rhand 15.4228 3.99652
rfingers 7.12502
rthumb 40.2495 -21.1538
lclavicle 1.27222e-014 9.54166e-015
lhumerus -83.211 -47.8018 117.632
lradius 99.8227
lwrist 25.7103
lhand 13.5172 16.7271
lfingers 7.12502
lthumb 38.4542 42.4013
rfemur -32.2755 17.0629 -6.38193
rtibia 45.4009
rfoot -17.2196 -9.11669
rtoes -25.0735
lfemur -19.5231 4.40056 -35.7048
ltibia 31.1298
lfoot -13.4507 4.67063
ltoes -6.93567
1899
root 1.47684 15.4321 -0.982142 3.51346 -13.874 13.374
lowerback 24.5921 -1.65128 11.9675
upperback 3.72058 2.34433 13.6542
thorax -9.77673 0.915452 8.08822
lowerneck -12.2983 -7.63724 -6.22345
upperneck 21.1128 -11.1509 7.89223
head 9.48837 -4.84515 2.38015
rclavicle 1.90833e-014 -7.95139e-014
rhumerus 20.7011 -39.5643 -29.7001
rradius 56.8519
rwrist 23.2046
rhand 15.4311 3.84211
rfingers 7.12502
rthumb 40.2573 -21.3058
lclavicle 1.90833e-014 -7.95139e-014
lhumerus -83.2642 -47.7336 117.728
lradius 99.7674
lwrist 25.6981
lhand 13.5144 16.639
lfingers 7.12502
lthumb 38.4515 42.314
rfemur -32.3745 17.0134 -6.36022
rtibia 45.4605
rfoot -17.2267 -9.05951
rtoes -25.072
lfemur -19.5667 4.41794 -35.6781
ltibia 31.1468
lfoot -13.4666 4.65898
ltoes -6.88752
1900
root 1.47104 15.4318 -0.98046 3.49584 -13.8933 13.3891
lowerback 24.6412 -1.65048 11.8905
upperback 3.71514 2.3373 13.6541
thorax -9.81228 0.91474 8.13742
lowerneck -12.3077 -7.61752 -6.22192
upperneck 21.171 -11.1183 7.84578
head 9.50473 -4.83342 2.36807
rclavicle -1.90833e-014 -6.67916e-014
rhumerus 20.6588 -39.4133 -29.6361
rradius 56.8301
rwrist 23.2303
rhand 15.4111 3.78004
rfingers 7.12502
rthumb 40.2385 -21.3736
lclavicle -1.90833e-014 -6.67916e-014
lhumerus -83.2531 -47.6801 117.768
lradius 99.7168
lwrist 25.6225
lhand 13.4837 16.5737
lfingers 7.12502
lthumb 38.4225 42.2567
rfemur -32.3957 16.9612 -6.33504
rtibia 45.5216
rfoot -17.2531 -9.02531
rtoes -25.1613
lfemur -19.5536 4.40814 -35.6677
ltibia 31.1727
lfoot -13.5125 4.68954
ltoes -6.94079
1901
root 1.46619 15.4301 -0.978822 3.46765 -13.9079 13.4429
lowerback 24.6693 -1.63287 11.7995
upperback 3.71816 2.33991 13.6332
thorax -9.82664 0.918951 8.1636
lowerneck -12.5047 -7.61871 -6.18622
upperneck 21.433 -11.1146 7.72004
head 9.62309 -4.83006 2.31239
rclavicle -1.04958e-013 -4.45278e-014
rhumerus 20.6321 -39.3573 -29.6182
rradius 56.7632
rwrist 23.2989
rhand 15.345 3.87329
rfingers 7.12502
rthumb 40.1763 -21.2993
lclavicle -1.04958e-013 -4.45278e-014
lhumerus -83.252 -47.671 117.797
lradius 99.7186
lwrist 25.5839
lhand 13.3851 16.4684
lfingers 7.12502
lthumb 38.3295 42.1772
rfemur -32.4086 16.9094 -6.36005
rtibia 45.5962
rfoot -17.2695 -8.98973
rtoes -25.1377
lfemur -19.558 4.4205 -35.7069
ltibia 31.2321
lfoot -13.5408 4.72991
ltoes -7.32439
